<?xml version="1.0" encoding="UTF-8"?>
<svg id="Calque_1" data-name="Calque 1" xmlns="http://www.w3.org/2000/svg" xmlns:xlink="http://www.w3.org/1999/xlink" viewBox="0 0 841.89 330.9">
  <defs>
    <style>
      .cls-1 {
        fill: #57aad8;
      }

      .cls-2 {
        font-family: Aleo-MediumItalic, Aleo;
        font-size: 183.64px;
        font-style: italic;
        font-weight: 500;
      }

      .cls-2, .cls-3 {
        fill: #2a77ba;
      }

      .cls-4 {
        fill: #3f91ce;
      }

      .cls-5 {
        fill: url(#Dégradé_sans_nom_12);
      }

      .cls-6 {
        fill: #72c8e0;
      }

      .cls-7 {
        fill: #3cb9dd;
      }

      .cls-8 {
        fill: #1f56a2;
      }
    </style>
    <linearGradient id="Dégradé_sans_nom_12" data-name="Dégradé sans nom 12" x1="187.34" y1="131.86" x2="129.15" y2="196.12" gradientUnits="userSpaceOnUse">
      <stop offset="0" stop-color="#61b6db"/>
      <stop offset="1" stop-color="#4fa0d4"/>
    </linearGradient>
  </defs>
  <g id="Objet_génératif" data-name="Objet génératif">
    <g>
      <path class="cls-3" d="M237.11,240c-51.22,40.95-114.81,43.43-169.35,14.24-.78-.42-4.39-4.46-6.19-4.95l-.31,1.24c-.18-.06-.47.09-.62,0-.8-3.76-7.94-5.22-10.94-7.73-21.1-17.64-35.1-42.29-43.55-68.43-15.71-48.57-.43-101.78,35.91-136.85l4.02,6.81,5.88-4.33C2.82,83.19-3.51,160.33,35.87,212.13c.3.51,1.96,3.67,2.17,3.72,4.72,1.07-5.26-10.77-4.33-11.76h20.12c22.31,37.68,65.8,58.34,109.29,53.25.34-.04,3.34-.74,2.79-1.86,2.48,0,5.87,1.49,7.12-.62-3.52-1.13-9.57.29-12.38,0-36.36-3.68-78.19-20.87-98.76-57.9-10.7-19.25-12.97-38.59-11.76-60.37,7.35-45.11,61.75-95.1,104.96-60.68,32.82,26.14,19.27,72.86-24.15,71.21,3.45-3.43,8.59-5.43,11.46-9.6,19-27.6-26.91-59.39-55.73-22.91-25.28,31.99-6.28,79.72,26.32,98.76,72.16,42.16,165.77-17.48,160.07-100.62-2.9-42.27-28.97-65.98-61.17-90.28v-.62c81.5,42.77,97.46,160.42,25.26,218.14Z"/>
      <path class="cls-6" d="M80.45,69.72l-21.67-17.96c37.83-36.11,113.9-46.67,149.23-1.55,24.35,31.1,15,71.71-23.53,82.35,34.04-20.73,11.03-63.23-18.27-75.23-28.41-11.64-61.51-5.32-85.76,12.38Z"/>
      <path class="cls-5" d="M262.19,109.97c9.88,71.9-64.34,124.37-130.03,95.36-36.96-16.33-58.59-63.58-24.15-94.12-19.12,32.66,8.39,67.02,39.63,77.4,54.13,17.98,110.2-23.17,114.55-78.64Z"/>
      <path class="cls-1" d="M79.23,70.63c-14.75,11.14-26.71,27.03-33.4,44.17-.03.08-.07.16-.13.23-8.12,11.44-8.6,28.86-8.59,43.05,0,.52-.33.97-.81,1.14-2.73.92-10.97-1.4-14.65-1.2-.69.04-1.25-.51-1.25-1.2,0-.57-.13-1.08-.73-1.43-.34-.19-.53-.56-.55-.95-1.86-37.18,12.19-75.96,38.89-101.92.44-.43,1.13-.45,1.6-.06l19.67,16.3c.6.5.57,1.41-.05,1.88Z"/>
      <path class="cls-7" d="M51.97,39.99l-5.88,4.33-4.02-6.81C77.65,3.19,135.83-11.98,181.69,10.89c1.2.6,5.12,2.08,4.95,3.72C142.84-1.23,86.97,9.24,51.97,39.99Z"/>
      <path class="cls-3" d="M45.78,114.92c-10.52,27.06-8.76,55.1,3.72,81.12l-19.81.31c-5.48-12.4-7.59-24.72-9.29-38.08,2.83-1.33,15.58,2.89,16.72.31-.02-14.32.38-32.09,8.67-43.65Z"/>
      <path class="cls-8" d="M237.11,240c-46.97,42.88-123.93,47.24-175.86,10.53l.31-1.24c1.8.49,5.41,4.53,6.19,4.95,54.54,29.18,118.14,26.71,169.35-14.24Z"/>
      <path class="cls-8" d="M165.9,255.48c-63.72.16-126.9-50.71-115.79-118.89-1.21,21.79,1.07,41.12,11.76,60.37,20.57,37.02,62.4,54.22,98.76,57.9,2.82.29,8.86-1.13,12.38,0-1.25,2.11-4.64.61-7.12.62Z"/>
      <path class="cls-4" d="M20.39,158.26c1.7,13.36,3.81,25.68,9.29,38.08l19.81-.31c1.02,2.12,3.12,6,4.33,8.05h-20.12c-.93.99,9.06,12.84,4.33,11.76-.21-.05-1.86-3.2-2.17-3.72-9.81-16.59-15.64-37.69-16.72-56.97,1.75.52,1.09,1.9,1.24,3.1Z"/>
      <path class="cls-8" d="M60.64,250.53c-24.78-14.66-48.37-48.3-54.49-76.16,8.46,26.14,23.79,49.85,44.89,67.49,3,2.51,8.8,4.91,9.6,8.67Z"/>
    </g>
  </g>
  <text class="cls-2" transform="translate(276.89 268.28)"><tspan x="0" y="0">naSoft</tspan></text>
</svg>